<svg width="82" height="103" viewBox="0 0 82 103" fill="none" xmlns="http://www.w3.org/2000/svg">
<g opacity="0.05">
<path d="M81.872 26.1434C81.872 26.1234 81.872 26.1234 81.8514 26.1035C81.7481 25.864 81.6035 25.6644 81.4382 25.4648C81.4382 25.4648 81.4382 25.4449 81.4175 25.4449L72.3689 16.3442V9.03973C72.3689 4.44948 68.5056 0.717407 63.754 0.717407H8.82144C3.94589 0.717407 0 4.54927 0 9.23931V86.3755C0 91.0855 3.96655 94.8974 8.82144 94.8974H9.68912C10.0816 99.2481 13.8829 102.681 18.4692 102.681H73.1746C78.0501 102.681 81.996 98.849 81.996 94.1589V26.8818C82.0167 26.6224 81.9547 26.3629 81.872 26.1434ZM65.7786 15.7455L74.8066 24.8062H65.7786V15.7455ZM4.31775 86.3954V9.23931C4.31775 6.82444 6.34235 4.86859 8.8421 4.86859H63.7747C66.1505 4.86859 68.0718 6.72465 68.0718 9.01977V12.0134L65.1795 9.13952C65.1795 9.13952 65.1588 9.13952 65.1588 9.11956C65.0968 9.05969 65.0142 8.99982 64.9522 8.93994C64.9109 8.91999 64.8903 8.88007 64.8489 8.86011C64.7456 8.78028 64.6217 8.72041 64.4977 8.68049C64.4977 8.68049 64.4977 8.68049 64.4771 8.68049C64.2085 8.58071 63.9399 8.52083 63.6301 8.52083H18.4899C13.6144 8.52083 9.66846 12.3527 9.66846 17.0427V90.7662H8.8421C6.34235 90.7462 4.31775 88.7903 4.31775 86.3954ZM73.1952 98.5297H18.4899C15.9901 98.5297 13.9656 96.5738 13.9656 94.1589V17.0228C13.9656 14.6079 15.9901 12.6521 18.4899 12.6521H61.4608V26.8818C61.4608 28.0394 62.4318 28.9574 63.6094 28.9574H77.6989V94.1589C77.6989 96.5738 75.6743 98.5297 73.1952 98.5297Z" fill="white"/>
<path d="M48.5906 28.9771H52.6604C53.8586 28.9771 54.809 28.0391 54.809 26.9015C54.809 25.744 53.838 24.8259 52.6604 24.8259H48.5906C47.3924 24.8259 46.442 25.7639 46.442 26.9015C46.4214 28.0391 47.3924 28.9771 48.5906 28.9771Z" fill="white"/>
<path d="M23.3056 28.9771H36.8993C38.0975 28.9771 39.0479 28.0391 39.0479 26.9015C39.0479 25.744 38.0769 24.8259 36.8993 24.8259H23.3056C22.1074 24.8259 21.1571 25.7639 21.1571 26.9015C21.1364 28.0391 22.1074 28.9771 23.3056 28.9771Z" fill="white"/>
<path d="M66.7903 77.6743H36.8966C35.6984 77.6743 34.748 78.6123 34.748 79.7499C34.748 80.8874 35.719 81.8254 36.8966 81.8254H66.7903C67.9886 81.8254 68.9389 80.8874 68.9389 79.7499C68.9389 78.6123 67.9886 77.6743 66.7903 77.6743Z" fill="white"/>
<path d="M28.5753 77.6743H23.3072C22.109 77.6743 21.1587 78.6123 21.1587 79.7499C21.1587 80.8874 22.1297 81.8254 23.3072 81.8254H28.5753C29.7736 81.8254 30.7239 80.8874 30.7239 79.7499C30.7239 78.6123 29.7736 77.6743 28.5753 77.6743Z" fill="white"/>
<path d="M66.7909 64.6614H58.7132C57.515 64.6614 56.5646 65.5994 56.5646 66.7369C56.5646 67.8745 57.5356 68.8125 58.7132 68.8125H66.7909C67.9891 68.8125 68.9395 67.8745 68.9395 66.7369C68.9395 65.5994 67.9891 64.6614 66.7909 64.6614Z" fill="white"/>
<path d="M23.3072 68.832H47.1478C48.3461 68.832 49.2964 67.894 49.2964 66.7564C49.2964 65.6188 48.3254 64.6808 47.1478 64.6808H23.3072C22.109 64.6808 21.1587 65.6188 21.1587 66.7564C21.1587 67.894 22.109 68.832 23.3072 68.832Z" fill="white"/>
<path d="M66.7905 51.6309H50.6144C49.4162 51.6309 48.4659 52.5689 48.4659 53.7065C48.4659 54.844 49.4369 55.782 50.6144 55.782H66.7905C67.9888 55.782 68.9391 54.844 68.9391 53.7065C68.9391 52.5689 67.9888 51.6309 66.7905 51.6309Z" fill="white"/>
<path d="M23.3045 55.8016H39.7698C40.9681 55.8016 41.9184 54.8636 41.9184 53.726C41.9184 52.5884 40.9474 51.6504 39.7698 51.6504H23.2839C22.0856 51.6504 21.1353 52.5884 21.1353 53.726C21.1353 54.8636 22.1063 55.8016 23.3045 55.8016Z" fill="white"/>
<path d="M66.7903 38.2177H36.8966C35.6984 38.2177 34.748 39.1557 34.748 40.2932C34.748 41.4508 35.719 42.3688 36.8966 42.3688H66.7903C67.9886 42.3688 68.9389 41.4308 68.9389 40.2932C68.9389 39.1557 67.9886 38.2177 66.7903 38.2177Z" fill="white"/>
<path d="M23.3056 42.3903H27.1895C28.3878 42.3903 29.3381 41.4523 29.3381 40.3147C29.3381 39.1572 28.3671 38.2391 27.1895 38.2391H23.3056C22.1074 38.2391 21.1571 39.1771 21.1571 40.3147C21.1364 41.4523 22.1074 42.3903 23.3056 42.3903Z" fill="white"/>
</g>
</svg>
