<svg width="673" height="316" viewBox="0 0 673 316" fill="none" xmlns="http://www.w3.org/2000/svg">
<path d="M357.805 6.10425V29.1655H346.795V6.10425H357.805Z" fill="white"/>
<path d="M335.785 6.10425V29.1655H324.776V6.10425H335.785Z" fill="white"/>
<path d="M313.762 6.10425V29.1655H302.752V6.10425H313.762Z" fill="white"/>
<path d="M447.752 8.90305V19.8846H468.78C470.955 19.8846 473.041 20.7465 474.58 22.2808C476.118 23.8151 476.982 25.896 476.982 28.0658L476.982 34.7097L634.033 34.7097C635.36 30.1199 638.303 26.1623 642.322 23.565C646.341 20.9678 651.166 19.9055 655.907 20.5736C660.649 21.2418 664.99 23.5954 668.13 27.2016C671.271 30.8077 673 35.4238 673 40.2004C673 44.9771 671.271 49.5932 668.13 53.1993C664.99 56.8055 660.649 59.1591 655.907 59.8273C651.166 60.4954 646.341 59.4332 642.322 56.8359C638.303 54.2386 635.36 50.281 634.033 45.6912H532.47L569.352 102.246C569.593 102.588 569.942 102.839 570.343 102.96L610.197 113.942C612.586 109.818 616.386 106.692 620.9 105.141C625.414 103.589 630.338 103.715 634.767 105.495C639.195 107.276 642.83 110.591 645.003 114.832C647.176 119.073 647.741 123.953 646.595 128.576C645.448 133.199 642.666 137.254 638.761 139.995C634.857 142.735 630.091 143.977 625.341 143.493C620.591 143.008 616.177 140.83 612.909 137.357C609.641 133.885 607.74 129.353 607.555 124.594L567.425 113.612C564.386 112.753 561.776 110.795 560.104 108.121L544.691 84.3463L513.809 101.532C513.863 102.282 513.863 103.034 513.809 103.784C513.874 107.717 512.765 111.582 510.622 114.884C508.478 118.187 505.398 120.779 501.773 122.33C498.148 123.881 494.142 124.32 490.266 123.593C486.39 122.866 482.818 121.005 480.006 118.246C477.193 115.488 475.268 111.957 474.474 108.103C473.68 104.249 474.054 100.247 475.548 96.6057C477.041 92.9646 479.588 89.8492 482.863 87.6562C486.137 85.4633 489.992 84.292 493.937 84.2914C496.881 84.3044 499.785 84.9773 502.434 86.2603C505.083 87.5434 507.409 89.4037 509.24 91.704L538.415 75.2316L519.093 45.4716L476.707 45.4716V52.4449C476.707 54.6147 475.842 56.6956 474.304 58.2299C472.766 59.7642 470.68 60.6261 468.505 60.6261H447.476V96.7555C447.462 100.086 446.129 103.276 443.768 105.631C441.407 107.985 438.209 109.315 434.87 109.329H397.603L397.603 130.579C397.603 131.658 397.389 132.726 396.973 133.722C396.558 134.718 395.949 135.623 395.181 136.383C394.414 137.144 393.503 137.745 392.502 138.153C391.5 138.561 390.428 138.767 389.346 138.76H382.575V170.222L448.632 170.222C451.033 170.219 453.383 170.905 455.403 172.199L497.019 198.554C499.555 196.749 502.483 195.565 505.564 195.099C508.645 194.633 511.792 194.899 514.751 195.874C517.71 196.849 520.396 198.507 522.592 200.712C524.788 202.917 526.432 205.607 527.39 208.565C528.348 211.523 528.594 214.664 528.107 217.734C527.619 220.804 526.413 223.716 524.586 226.233C522.759 228.751 520.362 230.804 517.59 232.224C514.819 233.645 511.75 234.393 508.634 234.409C505.997 234.453 503.377 233.973 500.928 232.996C498.479 232.019 496.249 230.566 494.369 228.721C492.488 226.876 490.995 224.676 489.975 222.25C488.956 219.823 488.431 217.218 488.432 214.587C488.417 212.065 488.904 209.564 489.863 207.23L449.183 181.478C448.913 181.28 448.581 181.183 448.247 181.204H421.108V243.524C425.71 244.847 429.678 247.783 432.281 251.792C434.885 255.801 435.95 260.613 435.28 265.343C434.611 270.072 432.251 274.402 428.636 277.534C425.02 280.667 420.392 282.392 415.604 282.392C410.815 282.392 406.187 280.667 402.572 277.534C398.956 274.402 396.597 270.072 395.927 265.343C395.257 260.613 396.322 255.801 398.926 251.792C401.53 247.783 405.497 244.847 410.099 243.524V181.204L380.153 181.204L365.125 208.987C368.227 212.533 369.946 217.074 369.969 221.78C369.969 225.701 368.804 229.533 366.62 232.793C364.436 236.052 361.333 238.593 357.702 240.093C354.07 241.594 350.075 241.986 346.22 241.221C342.365 240.456 338.824 238.569 336.045 235.796C333.266 233.024 331.373 229.492 330.606 225.647C329.84 221.802 330.233 217.817 331.737 214.195C333.241 210.573 335.788 207.477 339.056 205.299C342.324 203.121 346.166 201.959 350.097 201.959C351.969 202.032 353.821 202.365 355.602 202.947L371.07 174.285V138.76H364.354C362.179 138.76 360.093 137.898 358.554 136.364C357.016 134.829 356.152 132.748 356.152 130.579L356.152 109.604H348.39L348.39 130.579C348.39 132.748 347.526 134.829 345.988 136.364C344.45 137.898 342.364 138.76 340.188 138.76H315.692C313.517 138.76 311.43 137.898 309.892 136.364C308.354 134.829 307.49 132.748 307.49 130.579L307.49 109.604H299.783L299.783 130.579C299.783 132.748 298.919 134.829 297.381 136.364C295.843 137.898 293.756 138.76 291.581 138.76H286.792V174.285L312.059 221.012C313.04 222.874 313.551 224.948 313.545 227.052V272.186C318.131 273.509 322.085 276.438 324.678 280.437C327.272 284.435 328.331 289.232 327.662 293.947C326.992 298.662 324.638 302.978 321.033 306.1C317.428 309.222 312.815 310.941 308.04 310.941C303.266 310.941 298.652 309.222 295.047 306.1C291.442 302.978 289.089 298.662 288.419 293.947C287.749 289.232 288.809 284.435 291.402 280.437C293.996 276.438 297.949 273.509 302.536 272.186V227.052C302.588 226.779 302.588 226.5 302.536 226.228L278.149 181.204H248.203V209.975C252.79 211.298 256.743 214.228 259.337 218.226C261.93 222.224 262.99 227.022 262.32 231.737C261.65 236.452 259.296 240.767 255.692 243.89C252.087 247.012 247.473 248.731 242.699 248.731C237.924 248.731 233.311 247.012 229.706 243.89C226.101 240.767 223.747 236.452 223.077 231.737C222.408 227.022 223.467 222.224 226.061 218.226C228.654 214.228 232.607 211.298 237.194 209.975V181.204H210.11C209.76 181.191 209.414 181.287 209.119 181.478L162.714 210.854C163.368 212.821 163.721 214.876 163.76 216.949C163.771 220.871 162.615 224.709 160.438 227.976C158.261 231.243 155.161 233.792 151.531 235.3C147.901 236.809 143.903 237.21 140.045 236.451C136.186 235.692 132.64 233.809 129.856 231.039C127.071 228.269 125.173 224.737 124.402 220.891C123.63 217.044 124.021 213.056 125.523 209.431C127.026 205.806 129.573 202.707 132.842 200.526C136.111 198.346 139.955 197.182 143.888 197.182C148.503 197.191 152.967 198.824 156.494 201.794L203.229 172.199C205.282 170.887 207.673 170.2 210.11 170.222H276.168V138.76H267.47C265.295 138.76 263.209 137.898 261.67 136.364C260.132 134.829 259.268 132.748 259.268 130.579L259.268 109.604H226.68C223.331 109.604 220.119 108.281 217.746 105.924C215.374 103.568 214.033 100.37 214.019 97.03V60.6261L193.045 60.6261C190.87 60.6261 188.784 59.7642 187.246 58.2299C185.708 56.6956 184.843 54.6147 184.843 52.4449V45.6912H142.457L123.135 75.4513L156.824 94.1748C160.267 91.4423 164.535 89.9522 168.935 89.9469C172.865 89.9469 176.707 91.1094 179.975 93.2874C183.243 95.4655 185.79 98.5612 187.294 102.183C188.798 105.805 189.192 109.791 188.425 113.636C187.658 117.481 185.766 121.013 182.986 123.785C180.207 126.557 176.666 128.445 172.811 129.209C168.957 129.974 164.961 129.582 161.33 128.081C157.699 126.581 154.595 124.041 152.411 120.781C150.228 117.521 149.062 113.689 149.062 109.769C149.093 107.502 149.502 105.257 150.273 103.125L117.245 84.6758L101.831 108.451C100.16 111.125 97.5496 113.082 94.51 113.942L78.6562 118.334V118.719C78.6709 123.487 76.9661 128.103 73.8529 131.722C70.7398 135.341 66.4258 137.724 61.6981 138.434C56.9704 139.145 52.1442 138.136 48.1 135.592C44.0559 133.049 41.0634 129.139 39.6686 124.578C38.2739 120.017 38.5697 115.107 40.5022 110.745C42.4348 106.383 45.8752 102.86 50.1957 100.817C54.5162 98.7752 59.4288 98.3506 64.0371 99.6209C68.6454 100.891 72.6422 103.772 75.2983 107.737L91.5374 103.235C91.9316 103.1 92.2766 102.852 92.5283 102.521L129.41 45.6912L38.9669 45.6912C37.6403 50.281 34.6967 54.2386 30.6776 56.8359C26.6585 59.4332 21.8343 60.4954 17.0925 59.8273C12.3507 59.1591 8.01035 56.8055 4.86985 53.1993C1.72935 49.5932 1.43417e-06 44.9771 1.43417e-06 40.2004C1.43417e-06 35.4238 1.72935 30.8077 4.86985 27.2016C8.01035 23.5954 12.3507 21.2418 17.0925 20.5736C21.8343 19.9055 26.6585 20.9678 30.6776 23.565C34.6967 26.1623 37.6403 30.1199 38.9669 34.7097L185.009 34.7097V28.011C185.023 25.8507 185.894 23.7838 187.43 22.2614C188.967 20.739 191.045 19.8845 193.211 19.8846H214.184V8.90305C214.184 6.71868 215.054 4.62377 216.602 3.07919C218.151 1.53461 220.251 0.666882 222.441 0.666882H439.494C441.684 0.666882 443.785 1.53461 445.333 3.07919C446.882 4.62377 447.752 6.71868 447.752 8.90305V8.90305ZM627.372 132.94C629.13 132.94 630.848 132.418 632.307 131.442C633.767 130.466 634.903 129.078 635.57 127.457C636.238 125.835 636.407 124.052 636.056 122.334C635.705 120.616 634.85 119.041 633.599 117.81C632.349 116.578 630.759 115.745 629.033 115.416C627.307 115.087 625.521 115.278 623.904 115.964C622.286 116.65 620.91 117.8 619.95 119.268C618.989 120.737 618.488 122.456 618.51 124.209C618.539 126.535 619.485 128.755 621.144 130.389C622.803 132.024 625.041 132.94 627.372 132.94V132.94ZM485.349 104.113C485.35 105.873 485.877 107.593 486.864 109.052C487.851 110.511 489.251 111.643 490.887 112.303C492.522 112.964 494.318 113.122 496.045 112.758C497.771 112.394 499.349 111.524 500.577 110.26C501.805 108.996 502.626 107.396 502.936 105.663C503.247 103.931 503.031 102.145 502.318 100.536C501.605 98.9258 500.426 97.565 498.933 96.6275C497.44 95.6899 495.7 95.2183 493.937 95.273C491.634 95.3443 489.45 96.3071 487.847 97.9573C486.244 99.6075 485.348 101.815 485.349 104.113V104.113ZM653.025 49.2053C654.778 49.2053 656.491 48.6869 657.948 47.7155C659.406 46.7441 660.542 45.3635 661.213 43.7482C661.884 42.1329 662.059 40.3554 661.717 38.6405C661.375 36.9257 660.531 35.3506 659.292 34.1143C658.052 32.878 656.473 32.036 654.754 31.6949C653.034 31.3538 651.252 31.5289 649.633 32.198C648.014 32.867 646.629 34.0001 645.656 35.4539C644.682 36.9076 644.162 38.6168 644.162 40.3652C644.205 42.6811 645.158 44.8875 646.815 46.5099C648.473 48.1323 650.702 49.041 653.025 49.0406V49.2053ZM508.579 223.428C510.319 223.374 512.005 222.81 513.426 221.806C514.847 220.803 515.94 219.404 516.568 217.785C517.197 216.165 517.334 214.397 516.962 212.701C516.589 211.004 515.724 209.455 514.474 208.246C513.225 207.037 511.646 206.222 509.934 205.902C508.223 205.583 506.455 205.773 504.852 206.45C503.248 207.126 501.88 208.259 500.918 209.706C499.956 211.153 499.442 212.851 499.441 214.587C499.441 215.772 499.679 216.944 500.141 218.035C500.604 219.126 501.281 220.113 502.134 220.938C502.986 221.762 503.996 222.407 505.103 222.835C506.21 223.263 507.393 223.464 508.579 223.428V223.428ZM407.016 262.467C407.016 264.215 407.536 265.925 408.51 267.378C409.484 268.832 410.868 269.965 412.487 270.634C414.107 271.303 415.889 271.478 417.608 271.137C419.327 270.796 420.906 269.954 422.146 268.718C423.385 267.482 424.229 265.907 424.571 264.192C424.913 262.477 424.738 260.699 424.067 259.084C423.396 257.469 422.26 256.088 420.803 255.117C419.345 254.145 417.632 253.627 415.879 253.627C413.528 253.627 411.274 254.558 409.612 256.216C407.95 257.874 407.016 260.123 407.016 262.467ZM341.509 221.78C341.509 223.529 342.029 225.238 343.003 226.692C343.977 228.145 345.361 229.279 346.98 229.948C348.6 230.617 350.382 230.792 352.101 230.451C353.82 230.11 355.399 229.268 356.639 228.031C357.878 226.795 358.722 225.22 359.064 223.505C359.406 221.79 359.231 220.013 358.56 218.397C357.889 216.782 356.753 215.401 355.296 214.43C353.838 213.459 352.125 212.94 350.372 212.94C348.021 212.94 345.767 213.872 344.105 215.529C342.443 217.187 341.509 219.436 341.509 221.78V221.78ZM299.783 291.129C299.783 292.88 300.304 294.591 301.281 296.046C302.257 297.501 303.644 298.634 305.267 299.301C306.89 299.969 308.675 300.141 310.395 299.795C312.116 299.449 313.695 298.602 314.932 297.36C316.169 296.118 317.009 294.538 317.345 292.82C317.681 291.101 317.497 289.322 316.818 287.708C316.139 286.093 314.994 284.717 313.53 283.752C312.065 282.787 310.346 282.278 308.591 282.289C306.25 282.303 304.01 283.241 302.359 284.897C300.709 286.554 299.783 288.794 299.783 291.129V291.129ZM234.276 228.918C234.276 230.669 234.798 232.38 235.774 233.835C236.75 235.29 238.138 236.423 239.76 237.091C241.383 237.758 243.168 237.93 244.888 237.584C246.609 237.239 248.188 236.392 249.425 235.15C250.663 233.908 251.502 232.328 251.838 230.609C252.174 228.891 251.99 227.112 251.311 225.497C250.632 223.883 249.487 222.506 248.023 221.541C246.558 220.577 244.839 220.067 243.084 220.078C240.743 220.093 238.503 221.031 236.853 222.687C235.202 224.343 234.276 226.583 234.276 228.918V228.918ZM135.19 216.949C135.179 218.699 135.69 220.414 136.657 221.875C137.624 223.336 139.005 224.477 140.623 225.155C142.242 225.832 144.025 226.015 145.748 225.68C147.471 225.345 149.055 224.508 150.3 223.274C151.545 222.04 152.395 220.465 152.741 218.748C153.088 217.032 152.915 215.252 152.246 213.633C151.577 212.015 150.441 210.631 148.983 209.657C147.524 208.683 145.808 208.163 144.053 208.163C141.75 208.22 139.56 209.169 137.947 210.809C136.334 212.449 135.424 214.651 135.41 216.949H135.19ZM169.155 118.719C170.908 118.719 172.621 118.2 174.079 117.229C175.536 116.257 176.672 114.877 177.343 113.261C178.014 111.646 178.189 109.869 177.847 108.154C177.505 106.439 176.661 104.864 175.422 103.627C174.182 102.391 172.603 101.549 170.884 101.208C169.165 100.867 167.383 101.042 165.763 101.711C164.144 102.38 162.76 103.513 161.786 104.967C160.812 106.421 160.292 108.13 160.292 109.878C160.292 112.223 161.226 114.471 162.888 116.129C164.55 117.787 166.804 118.719 169.155 118.719ZM50.0864 118.719C50.0866 120.462 50.6037 122.167 51.5728 123.618C52.5418 125.07 53.9196 126.203 55.5326 126.875C57.1456 127.547 58.922 127.728 60.6381 127.396C62.3543 127.064 63.9335 126.233 65.1772 125.007C66.4209 123.782 67.2737 122.217 67.628 120.51C67.9823 118.802 67.8224 117.028 67.1684 115.411C66.5145 113.794 65.3956 112.406 63.9527 111.421C62.5098 110.437 60.8073 109.9 59.0593 109.878C57.8836 109.864 56.7166 110.081 55.6255 110.519C54.5344 110.956 53.5407 111.604 52.7017 112.425C51.8626 113.247 51.1948 114.226 50.7365 115.306C50.2782 116.386 50.0386 117.546 50.0314 118.719H50.0864ZM20.1404 31.3603C18.3876 31.3603 16.6741 31.8788 15.2167 32.8502C13.7592 33.8215 12.6232 35.2022 11.9524 36.8175C11.2816 38.4328 11.1061 40.2103 11.4481 41.9251C11.7901 43.6399 12.6342 45.2151 13.8737 46.4514C15.1131 47.6877 16.6923 48.5297 18.4115 48.8708C20.1307 49.2119 21.9127 49.0368 23.5321 48.3677C25.1516 47.6986 26.5357 46.5655 27.5095 45.1118C28.4834 43.658 29.0031 41.9489 29.0031 40.2004C29.0032 39.0349 28.7722 37.8809 28.3234 36.8047C27.8745 35.7286 27.2167 34.7516 26.3879 33.93C25.5591 33.1084 24.5755 32.4584 23.4939 32.0174C22.4123 31.5764 21.2539 31.3531 20.0854 31.3603H20.1404ZM466.027 49.6446V30.8661H447.807V49.6446H466.027ZM367.712 127.778H386.593L386.593 109.604H367.712L367.712 127.778ZM319.05 127.778H337.931L337.931 109.604H319.05L319.05 127.778ZM270.443 127.778H289.324L289.324 109.604H270.443L270.443 127.778ZM196.018 30.8661V49.6446H214.184V30.8661H196.018ZM225.193 19.8846V96.7555C225.208 97.1827 225.388 97.5877 225.696 97.8849C226.004 98.182 226.416 98.348 226.845 98.3478L435.146 98.3478C435.355 98.3478 435.563 98.3066 435.756 98.2266C435.95 98.1465 436.126 98.0293 436.274 97.8814C436.423 97.7335 436.54 97.558 436.62 97.3648C436.701 97.1716 436.742 96.9646 436.742 96.7555L436.742 11.5935H396.392V53.4882C396.392 55.9543 395.414 58.3202 393.671 60.0692C391.927 61.8181 389.561 62.808 387.089 62.8225H274.902C273.673 62.8225 272.456 62.581 271.32 62.1119C270.185 61.6428 269.153 60.9553 268.284 60.0885C267.415 59.2217 266.726 58.1927 266.256 57.0602C265.785 55.9277 265.543 54.714 265.543 53.4882V11.5935H225.193V19.8846ZM385.382 11.6484H276.553V51.8409H385.382V11.6484Z" fill="url(#paint0_linear_19_665)"/>
<path d="M447.752 8.90305V19.8846H468.78C470.955 19.8846 473.041 20.7465 474.58 22.2808C476.118 23.8151 476.982 25.896 476.982 28.0658L476.982 34.7097L634.033 34.7097C635.36 30.1199 638.303 26.1623 642.322 23.565C646.341 20.9678 651.166 19.9055 655.907 20.5736C660.649 21.2418 664.99 23.5954 668.13 27.2016C671.271 30.8077 673 35.4238 673 40.2004C673 44.9771 671.271 49.5932 668.13 53.1993C664.99 56.8055 660.649 59.1591 655.907 59.8273C651.166 60.4954 646.341 59.4332 642.322 56.8359C638.303 54.2386 635.36 50.281 634.033 45.6912H532.47L569.352 102.246C569.593 102.588 569.942 102.839 570.343 102.96L610.197 113.942C612.586 109.818 616.386 106.692 620.9 105.141C625.414 103.589 630.338 103.715 634.767 105.495C639.195 107.276 642.83 110.591 645.003 114.832C647.176 119.073 647.741 123.953 646.595 128.576C645.448 133.199 642.666 137.254 638.761 139.995C634.857 142.735 630.091 143.977 625.341 143.493C620.591 143.008 616.177 140.83 612.909 137.357C609.641 133.885 607.74 129.353 607.555 124.594L567.425 113.612C564.386 112.753 561.776 110.795 560.104 108.121L544.691 84.3463L513.809 101.532C513.863 102.282 513.863 103.034 513.809 103.784C513.874 107.717 512.765 111.582 510.622 114.884C508.478 118.187 505.398 120.779 501.773 122.33C498.148 123.881 494.142 124.32 490.266 123.593C486.39 122.866 482.818 121.005 480.006 118.246C477.193 115.488 475.268 111.957 474.474 108.103C473.68 104.249 474.054 100.247 475.548 96.6057C477.041 92.9646 479.588 89.8492 482.863 87.6562C486.137 85.4633 489.992 84.292 493.937 84.2914C496.881 84.3044 499.785 84.9773 502.434 86.2603C505.083 87.5434 507.409 89.4037 509.24 91.704L538.415 75.2316L519.093 45.4716L476.707 45.4716V52.4449C476.707 54.6147 475.842 56.6956 474.304 58.2299C472.766 59.7642 470.68 60.6261 468.505 60.6261H447.476V96.7555C447.462 100.086 446.129 103.276 443.768 105.631C441.407 107.985 438.209 109.315 434.87 109.329H397.603L397.603 130.579C397.603 131.658 397.389 132.726 396.973 133.722C396.558 134.718 395.949 135.623 395.181 136.383C394.414 137.144 393.503 137.745 392.502 138.153C391.5 138.561 390.428 138.767 389.346 138.76H382.575V170.222L448.632 170.222C451.033 170.219 453.383 170.905 455.403 172.199L497.019 198.554C499.555 196.749 502.483 195.565 505.564 195.099C508.645 194.633 511.792 194.899 514.751 195.874C517.71 196.849 520.396 198.507 522.592 200.712C524.788 202.917 526.432 205.607 527.39 208.565C528.348 211.523 528.594 214.664 528.107 217.734C527.619 220.804 526.413 223.716 524.586 226.233C522.759 228.751 520.362 230.804 517.59 232.224C514.819 233.645 511.75 234.393 508.634 234.409C505.997 234.453 503.377 233.973 500.928 232.996C498.479 232.019 496.249 230.566 494.369 228.721C492.488 226.876 490.995 224.676 489.975 222.25C488.956 219.823 488.431 217.218 488.432 214.587C488.417 212.065 488.904 209.564 489.863 207.23L449.183 181.478C448.913 181.28 448.581 181.183 448.247 181.204H421.108V243.524C425.71 244.847 429.678 247.783 432.281 251.792C434.885 255.801 435.95 260.613 435.28 265.343C434.611 270.072 432.251 274.402 428.636 277.534C425.02 280.667 420.392 282.392 415.604 282.392C410.815 282.392 406.187 280.667 402.572 277.534C398.956 274.402 396.597 270.072 395.927 265.343C395.257 260.613 396.322 255.801 398.926 251.792C401.53 247.783 405.497 244.847 410.099 243.524V181.204L380.153 181.204L365.125 208.987C368.227 212.533 369.946 217.074 369.969 221.78C369.969 225.701 368.804 229.533 366.62 232.793C364.436 236.052 361.333 238.593 357.702 240.093C354.07 241.594 350.075 241.986 346.22 241.221C342.365 240.456 338.824 238.569 336.045 235.796C333.266 233.024 331.373 229.492 330.606 225.647C329.84 221.802 330.233 217.817 331.737 214.195C333.241 210.573 335.788 207.477 339.056 205.299C342.324 203.121 346.166 201.959 350.097 201.959C351.969 202.032 353.821 202.365 355.602 202.947L371.07 174.285V138.76H364.354C362.179 138.76 360.093 137.898 358.554 136.364C357.016 134.829 356.152 132.748 356.152 130.579L356.152 109.604H348.39L348.39 130.579C348.39 132.748 347.526 134.829 345.988 136.364C344.45 137.898 342.364 138.76 340.188 138.76H315.692C313.517 138.76 311.43 137.898 309.892 136.364C308.354 134.829 307.49 132.748 307.49 130.579L307.49 109.604H299.783L299.783 130.579C299.783 132.748 298.919 134.829 297.381 136.364C295.843 137.898 293.756 138.76 291.581 138.76H286.792V174.285L312.059 221.012C313.04 222.874 313.551 224.948 313.545 227.052V272.186C318.131 273.509 322.085 276.438 324.678 280.437C327.272 284.435 328.331 289.232 327.662 293.947C326.992 298.662 324.638 302.978 321.033 306.1C317.428 309.222 312.815 310.941 308.04 310.941C303.266 310.941 298.652 309.222 295.047 306.1C291.442 302.978 289.089 298.662 288.419 293.947C287.749 289.232 288.809 284.435 291.402 280.437C293.996 276.438 297.949 273.509 302.536 272.186V227.052C302.588 226.779 302.588 226.5 302.536 226.228L278.149 181.204H248.203V209.975C252.79 211.298 256.743 214.228 259.337 218.226C261.93 222.224 262.99 227.022 262.32 231.737C261.65 236.452 259.296 240.767 255.692 243.89C252.087 247.012 247.473 248.731 242.699 248.731C237.924 248.731 233.311 247.012 229.706 243.89C226.101 240.767 223.747 236.452 223.077 231.737C222.408 227.022 223.467 222.224 226.061 218.226C228.654 214.228 232.607 211.298 237.194 209.975V181.204H210.11C209.76 181.191 209.414 181.287 209.119 181.478L162.714 210.854C163.368 212.821 163.721 214.876 163.76 216.949C163.771 220.871 162.615 224.709 160.438 227.976C158.261 231.243 155.161 233.792 151.531 235.3C147.901 236.809 143.903 237.21 140.045 236.451C136.186 235.692 132.64 233.809 129.856 231.039C127.071 228.269 125.173 224.737 124.402 220.891C123.63 217.044 124.021 213.056 125.523 209.431C127.026 205.806 129.573 202.707 132.842 200.526C136.111 198.346 139.955 197.182 143.888 197.182C148.503 197.191 152.967 198.824 156.494 201.794L203.229 172.199C205.282 170.887 207.673 170.2 210.11 170.222H276.168V138.76H267.47C265.295 138.76 263.209 137.898 261.67 136.364C260.132 134.829 259.268 132.748 259.268 130.579L259.268 109.604H226.68C223.331 109.604 220.119 108.281 217.746 105.924C215.374 103.568 214.033 100.37 214.019 97.03V60.6261L193.045 60.6261C190.87 60.6261 188.784 59.7642 187.246 58.2299C185.708 56.6956 184.843 54.6147 184.843 52.4449V45.6912H142.457L123.135 75.4513L156.824 94.1748C160.267 91.4423 164.535 89.9522 168.935 89.9469C172.865 89.9469 176.707 91.1094 179.975 93.2874C183.243 95.4655 185.79 98.5612 187.294 102.183C188.798 105.805 189.192 109.791 188.425 113.636C187.658 117.481 185.766 121.013 182.986 123.785C180.207 126.557 176.666 128.445 172.811 129.209C168.957 129.974 164.961 129.582 161.33 128.081C157.699 126.581 154.595 124.041 152.411 120.781C150.228 117.521 149.062 113.689 149.062 109.769C149.093 107.502 149.502 105.257 150.273 103.125L117.245 84.6758L101.831 108.451C100.16 111.125 97.5496 113.082 94.51 113.942L78.6562 118.334V118.719C78.6709 123.487 76.9661 128.103 73.8529 131.722C70.7398 135.341 66.4258 137.724 61.6981 138.434C56.9704 139.145 52.1442 138.136 48.1 135.592C44.0559 133.049 41.0634 129.139 39.6686 124.578C38.2739 120.017 38.5697 115.107 40.5022 110.745C42.4348 106.383 45.8752 102.86 50.1957 100.817C54.5162 98.7752 59.4288 98.3506 64.0371 99.6209C68.6454 100.891 72.6422 103.772 75.2983 107.737L91.5374 103.235C91.9316 103.1 92.2766 102.852 92.5283 102.521L129.41 45.6912L38.9669 45.6912C37.6403 50.281 34.6967 54.2386 30.6776 56.8359C26.6585 59.4332 21.8343 60.4954 17.0925 59.8273C12.3507 59.1591 8.01035 56.8055 4.86985 53.1993C1.72935 49.5932 1.43417e-06 44.9771 1.43417e-06 40.2004C1.43417e-06 35.4238 1.72935 30.8077 4.86985 27.2016C8.01035 23.5954 12.3507 21.2418 17.0925 20.5736C21.8343 19.9055 26.6585 20.9678 30.6776 23.565C34.6967 26.1623 37.6403 30.1199 38.9669 34.7097L185.009 34.7097V28.011C185.023 25.8507 185.894 23.7838 187.43 22.2614C188.967 20.739 191.045 19.8845 193.211 19.8846H214.184V8.90305C214.184 6.71868 215.054 4.62377 216.602 3.07919C218.151 1.53461 220.251 0.666882 222.441 0.666882H439.494C441.684 0.666882 443.785 1.53461 445.333 3.07919C446.882 4.62377 447.752 6.71868 447.752 8.90305V8.90305ZM627.372 132.94C629.13 132.94 630.848 132.418 632.307 131.442C633.767 130.466 634.903 129.078 635.57 127.457C636.238 125.835 636.407 124.052 636.056 122.334C635.705 120.616 634.85 119.041 633.599 117.81C632.349 116.578 630.759 115.745 629.033 115.416C627.307 115.087 625.521 115.278 623.904 115.964C622.286 116.65 620.91 117.8 619.95 119.268C618.989 120.737 618.488 122.456 618.51 124.209C618.539 126.535 619.485 128.755 621.144 130.389C622.803 132.024 625.041 132.94 627.372 132.94V132.94ZM485.349 104.113C485.35 105.873 485.877 107.593 486.864 109.052C487.851 110.511 489.251 111.643 490.887 112.303C492.522 112.964 494.318 113.122 496.045 112.758C497.771 112.394 499.349 111.524 500.577 110.26C501.805 108.996 502.626 107.396 502.936 105.663C503.247 103.931 503.031 102.145 502.318 100.536C501.605 98.9258 500.426 97.565 498.933 96.6275C497.44 95.6899 495.7 95.2183 493.937 95.273C491.634 95.3443 489.45 96.3071 487.847 97.9573C486.244 99.6075 485.348 101.815 485.349 104.113V104.113ZM653.025 49.2053C654.778 49.2053 656.491 48.6869 657.948 47.7155C659.406 46.7441 660.542 45.3635 661.213 43.7482C661.884 42.1329 662.059 40.3554 661.717 38.6405C661.375 36.9257 660.531 35.3506 659.292 34.1143C658.052 32.878 656.473 32.036 654.754 31.6949C653.034 31.3538 651.252 31.5289 649.633 32.198C648.014 32.867 646.629 34.0001 645.656 35.4539C644.682 36.9076 644.162 38.6168 644.162 40.3652C644.205 42.6811 645.158 44.8875 646.815 46.5099C648.473 48.1323 650.702 49.041 653.025 49.0406V49.2053ZM508.579 223.428C510.319 223.374 512.005 222.81 513.426 221.806C514.847 220.803 515.94 219.404 516.568 217.785C517.197 216.165 517.334 214.397 516.962 212.701C516.589 211.004 515.724 209.455 514.474 208.246C513.225 207.037 511.646 206.222 509.934 205.902C508.223 205.583 506.455 205.773 504.852 206.45C503.248 207.126 501.88 208.259 500.918 209.706C499.956 211.153 499.442 212.851 499.441 214.587C499.441 215.772 499.679 216.944 500.141 218.035C500.604 219.126 501.281 220.113 502.134 220.938C502.986 221.762 503.996 222.407 505.103 222.835C506.21 223.263 507.393 223.464 508.579 223.428V223.428ZM407.016 262.467C407.016 264.215 407.536 265.925 408.51 267.378C409.484 268.832 410.868 269.965 412.487 270.634C414.107 271.303 415.889 271.478 417.608 271.137C419.327 270.796 420.906 269.954 422.146 268.718C423.385 267.482 424.229 265.907 424.571 264.192C424.913 262.477 424.738 260.699 424.067 259.084C423.396 257.469 422.26 256.088 420.803 255.117C419.345 254.145 417.632 253.627 415.879 253.627C413.528 253.627 411.274 254.558 409.612 256.216C407.95 257.874 407.016 260.123 407.016 262.467ZM341.509 221.78C341.509 223.529 342.029 225.238 343.003 226.692C343.977 228.145 345.361 229.279 346.98 229.948C348.6 230.617 350.382 230.792 352.101 230.451C353.82 230.11 355.399 229.268 356.639 228.031C357.878 226.795 358.722 225.22 359.064 223.505C359.406 221.79 359.231 220.013 358.56 218.397C357.889 216.782 356.753 215.401 355.296 214.43C353.838 213.459 352.125 212.94 350.372 212.94C348.021 212.94 345.767 213.872 344.105 215.529C342.443 217.187 341.509 219.436 341.509 221.78V221.78ZM299.783 291.129C299.783 292.88 300.304 294.591 301.281 296.046C302.257 297.501 303.644 298.634 305.267 299.301C306.89 299.969 308.675 300.141 310.395 299.795C312.116 299.449 313.695 298.602 314.932 297.36C316.169 296.118 317.009 294.538 317.345 292.82C317.681 291.101 317.497 289.322 316.818 287.708C316.139 286.093 314.994 284.717 313.53 283.752C312.065 282.787 310.346 282.278 308.591 282.289C306.25 282.303 304.01 283.241 302.359 284.897C300.709 286.554 299.783 288.794 299.783 291.129V291.129ZM234.276 228.918C234.276 230.669 234.798 232.38 235.774 233.835C236.75 235.29 238.138 236.423 239.76 237.091C241.383 237.758 243.168 237.93 244.888 237.584C246.609 237.239 248.188 236.392 249.425 235.15C250.663 233.908 251.502 232.328 251.838 230.609C252.174 228.891 251.99 227.112 251.311 225.497C250.632 223.883 249.487 222.506 248.023 221.541C246.558 220.577 244.839 220.067 243.084 220.078C240.743 220.093 238.503 221.031 236.853 222.687C235.202 224.343 234.276 226.583 234.276 228.918V228.918ZM135.19 216.949C135.179 218.699 135.69 220.414 136.657 221.875C137.624 223.336 139.005 224.477 140.623 225.155C142.242 225.832 144.025 226.015 145.748 225.68C147.471 225.345 149.055 224.508 150.3 223.274C151.545 222.04 152.395 220.465 152.741 218.748C153.088 217.032 152.915 215.252 152.246 213.633C151.577 212.015 150.441 210.631 148.983 209.657C147.524 208.683 145.808 208.163 144.053 208.163C141.75 208.22 139.56 209.169 137.947 210.809C136.334 212.449 135.424 214.651 135.41 216.949H135.19ZM169.155 118.719C170.908 118.719 172.621 118.2 174.079 117.229C175.536 116.257 176.672 114.877 177.343 113.261C178.014 111.646 178.189 109.869 177.847 108.154C177.505 106.439 176.661 104.864 175.422 103.627C174.182 102.391 172.603 101.549 170.884 101.208C169.165 100.867 167.383 101.042 165.763 101.711C164.144 102.38 162.76 103.513 161.786 104.967C160.812 106.421 160.292 108.13 160.292 109.878C160.292 112.223 161.226 114.471 162.888 116.129C164.55 117.787 166.804 118.719 169.155 118.719ZM50.0864 118.719C50.0866 120.462 50.6037 122.167 51.5728 123.618C52.5418 125.07 53.9196 126.203 55.5326 126.875C57.1456 127.547 58.922 127.728 60.6381 127.396C62.3543 127.064 63.9335 126.233 65.1772 125.007C66.4209 123.782 67.2737 122.217 67.628 120.51C67.9823 118.802 67.8224 117.028 67.1684 115.411C66.5145 113.794 65.3956 112.406 63.9527 111.421C62.5098 110.437 60.8073 109.9 59.0593 109.878C57.8836 109.864 56.7166 110.081 55.6255 110.519C54.5344 110.956 53.5407 111.604 52.7017 112.425C51.8626 113.247 51.1948 114.226 50.7365 115.306C50.2782 116.386 50.0386 117.546 50.0314 118.719H50.0864ZM20.1404 31.3603C18.3876 31.3603 16.6741 31.8788 15.2167 32.8502C13.7592 33.8215 12.6232 35.2022 11.9524 36.8175C11.2816 38.4328 11.1061 40.2103 11.4481 41.9251C11.7901 43.6399 12.6342 45.2151 13.8737 46.4514C15.1131 47.6877 16.6923 48.5297 18.4115 48.8708C20.1307 49.2119 21.9127 49.0368 23.5321 48.3677C25.1516 47.6986 26.5357 46.5655 27.5095 45.1118C28.4834 43.658 29.0031 41.9489 29.0031 40.2004C29.0032 39.0349 28.7722 37.8809 28.3234 36.8047C27.8745 35.7286 27.2167 34.7516 26.3879 33.93C25.5591 33.1084 24.5755 32.4584 23.4939 32.0174C22.4123 31.5764 21.2539 31.3531 20.0854 31.3603H20.1404ZM466.027 49.6446V30.8661H447.807V49.6446H466.027ZM367.712 127.778H386.593L386.593 109.604H367.712L367.712 127.778ZM319.05 127.778H337.931L337.931 109.604H319.05L319.05 127.778ZM270.443 127.778H289.324L289.324 109.604H270.443L270.443 127.778ZM196.018 30.8661V49.6446H214.184V30.8661H196.018ZM225.193 19.8846V96.7555C225.208 97.1827 225.388 97.5877 225.696 97.8849C226.004 98.182 226.416 98.348 226.845 98.3478L435.146 98.3478C435.355 98.3478 435.563 98.3066 435.756 98.2266C435.95 98.1465 436.126 98.0293 436.274 97.8814C436.423 97.7335 436.54 97.558 436.62 97.3648C436.701 97.1716 436.742 96.9646 436.742 96.7555L436.742 11.5935H396.392V53.4882C396.392 55.9543 395.414 58.3202 393.671 60.0692C391.927 61.8181 389.561 62.808 387.089 62.8225H274.902C273.673 62.8225 272.456 62.581 271.32 62.1119C270.185 61.6428 269.153 60.9553 268.284 60.0885C267.415 59.2217 266.726 58.1927 266.256 57.0602C265.785 55.9277 265.543 54.714 265.543 53.4882V11.5935H225.193V19.8846ZM385.382 11.6484H276.553V51.8409H385.382V11.6484Z" fill="white"/>
<path d="M346.795 29.1631C346.795 26.1306 349.26 23.6723 352.3 23.6723C355.34 23.6723 357.805 26.1306 357.805 29.1631C357.805 32.1955 355.34 34.6538 352.3 34.6538C349.26 34.6538 346.795 32.1955 346.795 29.1631Z" fill="white"/>
<path d="M324.776 29.1631C324.776 26.1306 327.24 23.6723 330.28 23.6723C333.321 23.6723 335.785 26.1306 335.785 29.1631C335.785 32.1955 333.321 34.6538 330.28 34.6538C327.24 34.6538 324.776 32.1955 324.776 29.1631Z" fill="white"/>
<path d="M302.754 29.1631C302.754 26.1306 305.219 23.6723 308.259 23.6723C311.299 23.6723 313.764 26.1306 313.764 29.1631C313.764 32.1955 311.299 34.6538 308.259 34.6538C305.219 34.6538 302.754 32.1955 302.754 29.1631Z" fill="white"/>
<path d="M58.0926 143.232C53.72 143.232 49.4456 141.938 45.8099 139.515C42.1743 137.092 39.3406 133.648 37.6673 129.619C35.994 125.589 35.5561 121.155 36.4092 116.878C37.2622 112.6 39.3678 108.671 42.4597 105.587C45.5516 102.503 49.4909 100.403 53.7795 99.5517C58.0681 98.7008 62.5133 99.1375 66.553 100.807C70.5927 102.476 74.0456 105.302 76.4749 108.929C78.9041 112.555 80.2007 116.818 80.2007 121.18C80.2007 127.028 77.8715 132.637 73.7254 136.773C69.5793 140.908 63.956 143.232 58.0926 143.232V143.232ZM58.0926 113.829C56.635 113.829 55.2102 114.26 53.9983 115.068C52.7865 115.876 51.8419 117.024 51.2841 118.367C50.7264 119.71 50.5804 121.188 50.8648 122.614C51.1491 124.04 51.851 125.35 52.8816 126.378C53.9123 127.406 55.2254 128.106 56.6549 128.389C58.0844 128.673 59.5661 128.527 60.9127 127.971C62.2593 127.415 63.4102 126.472 64.22 125.264C65.0298 124.055 65.462 122.634 65.462 121.18C65.4425 119.243 64.6576 117.392 63.2776 116.03C61.8977 114.667 60.0344 113.903 58.0926 113.903V113.829Z" fill="url(#paint1_linear_19_665)"/>
<path d="M58.0926 143.232C53.72 143.232 49.4456 141.938 45.8099 139.515C42.1743 137.092 39.3406 133.648 37.6673 129.619C35.994 125.589 35.5561 121.155 36.4092 116.878C37.2622 112.6 39.3678 108.671 42.4597 105.587C45.5516 102.503 49.4909 100.403 53.7795 99.5517C58.0681 98.7008 62.5133 99.1375 66.553 100.807C70.5927 102.476 74.0456 105.302 76.4749 108.929C78.9041 112.555 80.2007 116.818 80.2007 121.18C80.2007 127.028 77.8715 132.637 73.7254 136.773C69.5793 140.908 63.956 143.232 58.0926 143.232V143.232ZM58.0926 113.829C56.635 113.829 55.2102 114.26 53.9983 115.068C52.7865 115.876 51.8419 117.024 51.2841 118.367C50.7264 119.71 50.5804 121.188 50.8648 122.614C51.1491 124.04 51.851 125.35 52.8816 126.378C53.9123 127.406 55.2254 128.106 56.6549 128.389C58.0844 128.673 59.5661 128.527 60.9127 127.971C62.2593 127.415 63.4102 126.472 64.22 125.264C65.0298 124.055 65.462 122.634 65.462 121.18C65.4425 119.243 64.6576 117.392 63.2776 116.03C61.8977 114.667 60.0344 113.903 58.0926 113.903V113.829Z" fill="#922636"/>
<path d="M58.0926 143.232C53.72 143.232 49.4456 141.938 45.8099 139.515C42.1743 137.092 39.3406 133.648 37.6673 129.619C35.994 125.589 35.5561 121.155 36.4092 116.878C37.2622 112.6 39.3678 108.671 42.4597 105.587C45.5516 102.503 49.4909 100.403 53.7795 99.5517C58.0681 98.7008 62.5133 99.1375 66.553 100.807C70.5927 102.476 74.0456 105.302 76.4749 108.929C78.9041 112.555 80.2007 116.818 80.2007 121.18C80.2007 127.028 77.8715 132.637 73.7254 136.773C69.5793 140.908 63.956 143.232 58.0926 143.232V143.232ZM58.0926 113.829C56.635 113.829 55.2102 114.26 53.9983 115.068C52.7865 115.876 51.8419 117.024 51.2841 118.367C50.7264 119.71 50.5804 121.188 50.8648 122.614C51.1491 124.04 51.851 125.35 52.8816 126.378C53.9123 127.406 55.2254 128.106 56.6549 128.389C58.0844 128.673 59.5661 128.527 60.9127 127.971C62.2593 127.415 63.4102 126.472 64.22 125.264C65.0298 124.055 65.462 122.634 65.462 121.18C65.4425 119.243 64.6576 117.392 63.2776 116.03C61.8977 114.667 60.0344 113.903 58.0926 113.903V113.829Z" fill="#B82B40"/>
<path d="M143.442 240.668C139.07 240.668 134.795 239.374 131.16 236.951C127.524 234.528 124.69 231.084 123.017 227.055C121.344 223.025 120.906 218.591 121.759 214.314C122.612 210.036 124.717 206.107 127.809 203.023C130.901 199.939 134.841 197.839 139.129 196.988C143.418 196.137 147.863 196.574 151.903 198.243C155.942 199.912 159.395 202.738 161.824 206.365C164.254 209.991 165.55 214.255 165.55 218.616C165.55 224.464 163.221 230.073 159.075 234.209C154.929 238.344 149.306 240.668 143.442 240.668V240.668ZM143.442 211.265C141.985 211.265 140.56 211.696 139.348 212.504C138.136 213.312 137.192 214.46 136.634 215.803C136.076 217.146 135.93 218.624 136.214 220.05C136.499 221.476 137.201 222.786 138.231 223.814C139.262 224.842 140.575 225.542 142.004 225.825C143.434 226.109 144.916 225.963 146.262 225.407C147.609 224.851 148.76 223.908 149.57 222.7C150.379 221.491 150.812 220.07 150.812 218.616C150.792 216.679 150.007 214.828 148.627 213.466C147.247 212.103 145.384 211.339 143.442 211.339V211.265Z" fill="url(#paint2_linear_19_665)"/>
<path d="M143.442 240.668C139.07 240.668 134.795 239.374 131.16 236.951C127.524 234.528 124.69 231.084 123.017 227.055C121.344 223.025 120.906 218.591 121.759 214.314C122.612 210.036 124.717 206.107 127.809 203.023C130.901 199.939 134.841 197.839 139.129 196.988C143.418 196.137 147.863 196.574 151.903 198.243C155.942 199.912 159.395 202.738 161.824 206.365C164.254 209.991 165.55 214.255 165.55 218.616C165.55 224.464 163.221 230.073 159.075 234.209C154.929 238.344 149.306 240.668 143.442 240.668V240.668ZM143.442 211.265C141.985 211.265 140.56 211.696 139.348 212.504C138.136 213.312 137.192 214.46 136.634 215.803C136.076 217.146 135.93 218.624 136.214 220.05C136.499 221.476 137.201 222.786 138.231 223.814C139.262 224.842 140.575 225.542 142.004 225.825C143.434 226.109 144.916 225.963 146.262 225.407C147.609 224.851 148.76 223.908 149.57 222.7C150.379 221.491 150.812 220.07 150.812 218.616C150.792 216.679 150.007 214.828 148.627 213.466C147.247 212.103 145.384 211.339 143.442 211.339V211.265Z" fill="#922636"/>
<path d="M143.442 240.668C139.07 240.668 134.795 239.374 131.16 236.951C127.524 234.528 124.69 231.084 123.017 227.055C121.344 223.025 120.906 218.591 121.759 214.314C122.612 210.036 124.717 206.107 127.809 203.023C130.901 199.939 134.841 197.839 139.129 196.988C143.418 196.137 147.863 196.574 151.903 198.243C155.942 199.912 159.395 202.738 161.824 206.365C164.254 209.991 165.55 214.255 165.55 218.616C165.55 224.464 163.221 230.073 159.075 234.209C154.929 238.344 149.306 240.668 143.442 240.668V240.668ZM143.442 211.265C141.985 211.265 140.56 211.696 139.348 212.504C138.136 213.312 137.192 214.46 136.634 215.803C136.076 217.146 135.93 218.624 136.214 220.05C136.499 221.476 137.201 222.786 138.231 223.814C139.262 224.842 140.575 225.542 142.004 225.825C143.434 226.109 144.916 225.963 146.262 225.407C147.609 224.851 148.76 223.908 149.57 222.7C150.379 221.491 150.812 220.07 150.812 218.616C150.792 216.679 150.007 214.828 148.627 213.466C147.247 212.103 145.384 211.339 143.442 211.339V211.265Z" fill="#B82B40"/>
<path d="M307.97 315.544C303.597 315.544 299.323 314.251 295.687 311.827C292.051 309.404 289.218 305.96 287.544 301.931C285.871 297.901 285.433 293.467 286.286 289.19C287.139 284.912 289.245 280.983 292.337 277.899C295.429 274.815 299.368 272.715 303.656 271.864C307.945 271.013 312.39 271.449 316.43 273.119C320.47 274.788 323.923 277.614 326.352 281.241C328.781 284.867 330.078 289.131 330.078 293.492C330.078 299.341 327.748 304.949 323.602 309.085C319.456 313.221 313.833 315.544 307.97 315.544V315.544ZM307.97 286.141C306.512 286.141 305.087 286.572 303.875 287.38C302.663 288.188 301.719 289.336 301.161 290.679C300.603 292.022 300.457 293.5 300.742 294.926C301.026 296.352 301.728 297.662 302.759 298.69C303.789 299.718 305.102 300.418 306.532 300.701C307.961 300.985 309.443 300.839 310.79 300.283C312.136 299.727 313.287 298.785 314.097 297.576C314.907 296.367 315.339 294.946 315.339 293.492C315.319 291.555 314.535 289.704 313.155 288.342C311.775 286.979 309.911 286.215 307.97 286.215V286.141Z" fill="url(#paint3_linear_19_665)"/>
<path d="M307.97 315.544C303.597 315.544 299.323 314.251 295.687 311.827C292.051 309.404 289.218 305.96 287.544 301.931C285.871 297.901 285.433 293.467 286.286 289.19C287.139 284.912 289.245 280.983 292.337 277.899C295.429 274.815 299.368 272.715 303.656 271.864C307.945 271.013 312.39 271.449 316.43 273.119C320.47 274.788 323.923 277.614 326.352 281.241C328.781 284.867 330.078 289.131 330.078 293.492C330.078 299.341 327.748 304.949 323.602 309.085C319.456 313.221 313.833 315.544 307.97 315.544V315.544ZM307.97 286.141C306.512 286.141 305.087 286.572 303.875 287.38C302.663 288.188 301.719 289.336 301.161 290.679C300.603 292.022 300.457 293.5 300.742 294.926C301.026 296.352 301.728 297.662 302.759 298.69C303.789 299.718 305.102 300.418 306.532 300.701C307.961 300.985 309.443 300.839 310.79 300.283C312.136 299.727 313.287 298.785 314.097 297.576C314.907 296.367 315.339 294.946 315.339 293.492C315.319 291.555 314.535 289.704 313.155 288.342C311.775 286.979 309.911 286.215 307.97 286.215V286.141Z" fill="#922636"/>
<path d="M307.97 315.544C303.597 315.544 299.323 314.251 295.687 311.827C292.051 309.404 289.218 305.96 287.544 301.931C285.871 297.901 285.433 293.467 286.286 289.19C287.139 284.912 289.245 280.983 292.337 277.899C295.429 274.815 299.368 272.715 303.656 271.864C307.945 271.013 312.39 271.449 316.43 273.119C320.47 274.788 323.923 277.614 326.352 281.241C328.781 284.867 330.078 289.131 330.078 293.492C330.078 299.341 327.748 304.949 323.602 309.085C319.456 313.221 313.833 315.544 307.97 315.544V315.544ZM307.97 286.141C306.512 286.141 305.087 286.572 303.875 287.38C302.663 288.188 301.719 289.336 301.161 290.679C300.603 292.022 300.457 293.5 300.742 294.926C301.026 296.352 301.728 297.662 302.759 298.69C303.789 299.718 305.102 300.418 306.532 300.701C307.961 300.985 309.443 300.839 310.79 300.283C312.136 299.727 313.287 298.785 314.097 297.576C314.907 296.367 315.339 294.946 315.339 293.492C315.319 291.555 314.535 289.704 313.155 288.342C311.775 286.979 309.911 286.215 307.97 286.215V286.141Z" fill="#B82B40"/>
<path d="M413.882 284.771C409.509 284.771 405.235 283.478 401.599 281.055C397.963 278.632 395.13 275.188 393.456 271.158C391.783 267.129 391.345 262.695 392.198 258.417C393.051 254.14 395.157 250.21 398.249 247.126C401.341 244.042 405.28 241.942 409.569 241.091C413.857 240.24 418.302 240.677 422.342 242.346C426.382 244.015 429.835 246.842 432.264 250.468C434.693 254.094 435.99 258.358 435.99 262.719C435.99 268.568 433.661 274.177 429.515 278.312C425.368 282.448 419.745 284.771 413.882 284.771V284.771ZM413.882 255.369C412.424 255.369 410.999 255.8 409.787 256.608C408.576 257.415 407.631 258.563 407.073 259.906C406.515 261.25 406.37 262.728 406.654 264.153C406.938 265.579 407.64 266.889 408.671 267.917C409.701 268.945 411.014 269.645 412.444 269.929C413.873 270.212 415.355 270.067 416.702 269.511C418.048 268.954 419.199 268.012 420.009 266.803C420.819 265.594 421.251 264.173 421.251 262.719C421.232 260.783 420.447 258.932 419.067 257.569C417.687 256.207 415.823 255.442 413.882 255.442V255.369Z" fill="url(#paint4_linear_19_665)"/>
<path d="M413.882 284.771C409.509 284.771 405.235 283.478 401.599 281.055C397.963 278.632 395.13 275.188 393.456 271.158C391.783 267.129 391.345 262.695 392.198 258.417C393.051 254.14 395.157 250.21 398.249 247.126C401.341 244.042 405.28 241.942 409.569 241.091C413.857 240.24 418.302 240.677 422.342 242.346C426.382 244.015 429.835 246.842 432.264 250.468C434.693 254.094 435.99 258.358 435.99 262.719C435.99 268.568 433.661 274.177 429.515 278.312C425.368 282.448 419.745 284.771 413.882 284.771V284.771ZM413.882 255.369C412.424 255.369 410.999 255.8 409.787 256.608C408.576 257.415 407.631 258.563 407.073 259.906C406.515 261.25 406.37 262.728 406.654 264.153C406.938 265.579 407.64 266.889 408.671 267.917C409.701 268.945 411.014 269.645 412.444 269.929C413.873 270.212 415.355 270.067 416.702 269.511C418.048 268.954 419.199 268.012 420.009 266.803C420.819 265.594 421.251 264.173 421.251 262.719C421.232 260.783 420.447 258.932 419.067 257.569C417.687 256.207 415.823 255.442 413.882 255.442V255.369Z" fill="#922636"/>
<path d="M413.882 284.771C409.509 284.771 405.235 283.478 401.599 281.055C397.963 278.632 395.13 275.188 393.456 271.158C391.783 267.129 391.345 262.695 392.198 258.417C393.051 254.14 395.157 250.21 398.249 247.126C401.341 244.042 405.28 241.942 409.569 241.091C413.857 240.24 418.302 240.677 422.342 242.346C426.382 244.015 429.835 246.842 432.264 250.468C434.693 254.094 435.99 258.358 435.99 262.719C435.99 268.568 433.661 274.177 429.515 278.312C425.368 282.448 419.745 284.771 413.882 284.771V284.771ZM413.882 255.369C412.424 255.369 410.999 255.8 409.787 256.608C408.576 257.415 407.631 258.563 407.073 259.906C406.515 261.25 406.37 262.728 406.654 264.153C406.938 265.579 407.64 266.889 408.671 267.917C409.701 268.945 411.014 269.645 412.444 269.929C413.873 270.212 415.355 270.067 416.702 269.511C418.048 268.954 419.199 268.012 420.009 266.803C420.819 265.594 421.251 264.173 421.251 262.719C421.232 260.783 420.447 258.932 419.067 257.569C417.687 256.207 415.823 255.442 413.882 255.442V255.369Z" fill="#B82B40"/>
<path d="M493.059 127.846C488.687 127.846 484.412 126.553 480.777 124.13C477.141 121.707 474.307 118.263 472.634 114.233C470.961 110.204 470.523 105.77 471.376 101.492C472.229 97.2144 474.335 93.2851 477.427 90.2011C480.518 87.1171 484.458 85.0168 488.746 84.1659C493.035 83.315 497.48 83.7517 501.52 85.4208C505.56 87.0898 509.012 89.9163 511.442 93.5428C513.871 97.1692 515.168 101.433 515.168 105.794C515.168 111.643 512.838 117.252 508.692 121.387C504.546 125.523 498.923 127.846 493.059 127.846V127.846ZM493.059 98.4436C491.602 98.4436 490.177 98.8746 488.965 99.6823C487.753 100.49 486.809 101.638 486.251 102.981C485.693 104.324 485.547 105.802 485.832 107.228C486.116 108.654 486.818 109.964 487.848 110.992C488.879 112.02 490.192 112.72 491.622 113.004C493.051 113.287 494.533 113.142 495.88 112.585C497.226 112.029 498.377 111.087 499.187 109.878C499.997 108.669 500.429 107.248 500.429 105.794C500.409 103.857 499.624 102.007 498.244 100.644C496.865 99.2813 495.001 98.5169 493.059 98.517V98.4436Z" fill="url(#paint5_linear_19_665)"/>
<path d="M493.059 127.846C488.687 127.846 484.412 126.553 480.777 124.13C477.141 121.707 474.307 118.263 472.634 114.233C470.961 110.204 470.523 105.77 471.376 101.492C472.229 97.2144 474.335 93.2851 477.427 90.2011C480.518 87.1171 484.458 85.0168 488.746 84.1659C493.035 83.315 497.48 83.7517 501.52 85.4208C505.56 87.0898 509.012 89.9163 511.442 93.5428C513.871 97.1692 515.168 101.433 515.168 105.794C515.168 111.643 512.838 117.252 508.692 121.387C504.546 125.523 498.923 127.846 493.059 127.846V127.846ZM493.059 98.4436C491.602 98.4436 490.177 98.8746 488.965 99.6823C487.753 100.49 486.809 101.638 486.251 102.981C485.693 104.324 485.547 105.802 485.832 107.228C486.116 108.654 486.818 109.964 487.848 110.992C488.879 112.02 490.192 112.72 491.622 113.004C493.051 113.287 494.533 113.142 495.88 112.585C497.226 112.029 498.377 111.087 499.187 109.878C499.997 108.669 500.429 107.248 500.429 105.794C500.409 103.857 499.624 102.007 498.244 100.644C496.865 99.2813 495.001 98.5169 493.059 98.517V98.4436Z" fill="#922636"/>
<path d="M493.059 127.846C488.687 127.846 484.412 126.553 480.777 124.13C477.141 121.707 474.307 118.263 472.634 114.233C470.961 110.204 470.523 105.77 471.376 101.492C472.229 97.2144 474.335 93.2851 477.427 90.2011C480.518 87.1171 484.458 85.0168 488.746 84.1659C493.035 83.315 497.48 83.7517 501.52 85.4208C505.56 87.0898 509.012 89.9163 511.442 93.5428C513.871 97.1692 515.168 101.433 515.168 105.794C515.168 111.643 512.838 117.252 508.692 121.387C504.546 125.523 498.923 127.846 493.059 127.846V127.846ZM493.059 98.4436C491.602 98.4436 490.177 98.8746 488.965 99.6823C487.753 100.49 486.809 101.638 486.251 102.981C485.693 104.324 485.547 105.802 485.832 107.228C486.116 108.654 486.818 109.964 487.848 110.992C488.879 112.02 490.192 112.72 491.622 113.004C493.051 113.287 494.533 113.142 495.88 112.585C497.226 112.029 498.377 111.087 499.187 109.878C499.997 108.669 500.429 107.248 500.429 105.794C500.409 103.857 499.624 102.007 498.244 100.644C496.865 99.2813 495.001 98.5169 493.059 98.517V98.4436Z" fill="#B82B40"/>
<path d="M650.386 62.2016C646.013 62.2016 641.739 60.9082 638.103 58.4851C634.467 56.062 631.634 52.618 629.96 48.5885C628.287 44.5591 627.849 40.1251 628.702 35.8475C629.555 31.5698 631.661 27.6406 634.753 24.5566C637.845 21.4726 641.784 19.3723 646.072 18.5214C650.361 17.6705 654.806 18.1072 658.846 19.7763C662.886 21.4453 666.339 24.2718 668.768 27.8982C671.197 31.5247 672.494 35.7882 672.494 40.1497C672.494 45.9982 670.165 51.6071 666.018 55.7426C661.872 59.8782 656.249 62.2016 650.386 62.2016V62.2016ZM650.386 32.799C648.928 32.799 647.503 33.2301 646.291 34.0378C645.079 34.8455 644.135 35.9935 643.577 37.3367C643.019 38.6798 642.873 40.1578 643.158 41.5837C643.442 43.0096 644.144 44.3194 645.175 45.3474C646.205 46.3754 647.518 47.0754 648.948 47.359C650.377 47.6426 651.859 47.4971 653.206 46.9407C654.552 46.3844 655.703 45.4422 656.513 44.2334C657.323 43.0246 657.755 41.6035 657.755 40.1497C657.736 38.2129 656.951 36.3621 655.571 34.9994C654.191 33.6368 652.327 32.8724 650.386 32.8725V32.799Z" fill="url(#paint6_linear_19_665)"/>
<path d="M650.386 62.2016C646.013 62.2016 641.739 60.9082 638.103 58.4851C634.467 56.062 631.634 52.618 629.96 48.5885C628.287 44.5591 627.849 40.1251 628.702 35.8475C629.555 31.5698 631.661 27.6406 634.753 24.5566C637.845 21.4726 641.784 19.3723 646.072 18.5214C650.361 17.6705 654.806 18.1072 658.846 19.7763C662.886 21.4453 666.339 24.2718 668.768 27.8982C671.197 31.5247 672.494 35.7882 672.494 40.1497C672.494 45.9982 670.165 51.6071 666.018 55.7426C661.872 59.8782 656.249 62.2016 650.386 62.2016V62.2016ZM650.386 32.799C648.928 32.799 647.503 33.2301 646.291 34.0378C645.079 34.8455 644.135 35.9935 643.577 37.3367C643.019 38.6798 642.873 40.1578 643.158 41.5837C643.442 43.0096 644.144 44.3194 645.175 45.3474C646.205 46.3754 647.518 47.0754 648.948 47.359C650.377 47.6426 651.859 47.4971 653.206 46.9407C654.552 46.3844 655.703 45.4422 656.513 44.2334C657.323 43.0246 657.755 41.6035 657.755 40.1497C657.736 38.2129 656.951 36.3621 655.571 34.9994C654.191 33.6368 652.327 32.8724 650.386 32.8725V32.799Z" fill="#922636"/>
<path d="M650.386 62.2016C646.013 62.2016 641.739 60.9082 638.103 58.4851C634.467 56.062 631.634 52.618 629.96 48.5885C628.287 44.5591 627.849 40.1251 628.702 35.8475C629.555 31.5698 631.661 27.6406 634.753 24.5566C637.845 21.4726 641.784 19.3723 646.072 18.5214C650.361 17.6705 654.806 18.1072 658.846 19.7763C662.886 21.4453 666.339 24.2718 668.768 27.8982C671.197 31.5247 672.494 35.7882 672.494 40.1497C672.494 45.9982 670.165 51.6071 666.018 55.7426C661.872 59.8782 656.249 62.2016 650.386 62.2016V62.2016ZM650.386 32.799C648.928 32.799 647.503 33.2301 646.291 34.0378C645.079 34.8455 644.135 35.9935 643.577 37.3367C643.019 38.6798 642.873 40.1578 643.158 41.5837C643.442 43.0096 644.144 44.3194 645.175 45.3474C646.205 46.3754 647.518 47.0754 648.948 47.359C650.377 47.6426 651.859 47.4971 653.206 46.9407C654.552 46.3844 655.703 45.4422 656.513 44.2334C657.323 43.0246 657.755 41.6035 657.755 40.1497C657.736 38.2129 656.951 36.3621 655.571 34.9994C654.191 33.6368 652.327 32.8724 650.386 32.8725V32.799Z" fill="#B82B40"/>
<path d="M288.947 109.759H270.438V128.229H288.947V109.759Z" fill="#B82B40" stroke="#B82B40" stroke-width="4.11429" stroke-linecap="round"/>
<path d="M385.605 109.759H367.096V128.229H385.605V109.759Z" fill="#B82B40" stroke="#B82B40" stroke-width="4.11429" stroke-linecap="round"/>
<path d="M337.271 109.759H318.762V128.229H337.271V109.759Z" fill="#B82B40" stroke="#B82B40" stroke-width="4.11429" stroke-linecap="round"/>
<defs>
<linearGradient id="paint0_linear_19_665" x1="-68370.1" y1="-13338" x2="-68370.1" y2="-30874.8" gradientUnits="userSpaceOnUse">
<stop stop-color="#703126"/>
<stop offset="1" stop-color="#D45943"/>
</linearGradient>
<linearGradient id="paint1_linear_19_665" x1="1195.78" y1="6619.9" x2="1460.64" y2="6619.9" gradientUnits="userSpaceOnUse">
<stop stop-color="#703126"/>
<stop offset="1" stop-color="#D45943"/>
</linearGradient>
<linearGradient id="paint2_linear_19_665" x1="1281.13" y1="6717.32" x2="1545.99" y2="6717.32" gradientUnits="userSpaceOnUse">
<stop stop-color="#703126"/>
<stop offset="1" stop-color="#D45943"/>
</linearGradient>
<linearGradient id="paint3_linear_19_665" x1="1445.66" y1="6792.22" x2="1710.51" y2="6792.22" gradientUnits="userSpaceOnUse">
<stop stop-color="#703126"/>
<stop offset="1" stop-color="#D45943"/>
</linearGradient>
<linearGradient id="paint4_linear_19_665" x1="1551.57" y1="6761.43" x2="1816.43" y2="6761.43" gradientUnits="userSpaceOnUse">
<stop stop-color="#703126"/>
<stop offset="1" stop-color="#D45943"/>
</linearGradient>
<linearGradient id="paint5_linear_19_665" x1="1630.75" y1="6604.51" x2="1895.6" y2="6604.51" gradientUnits="userSpaceOnUse">
<stop stop-color="#703126"/>
<stop offset="1" stop-color="#D45943"/>
</linearGradient>
<linearGradient id="paint6_linear_19_665" x1="1788.07" y1="6538.87" x2="2052.93" y2="6538.87" gradientUnits="userSpaceOnUse">
<stop stop-color="#703126"/>
<stop offset="1" stop-color="#D45943"/>
</linearGradient>
</defs>
</svg>
