<svg width="51" height="52" viewBox="0 0 51 52" fill="none" xmlns="http://www.w3.org/2000/svg">
<path fill-rule="evenodd" clip-rule="evenodd" d="M0 26.2547C0 12.2039 11.4168 0.813477 25.5 0.813477C39.5832 0.813477 51 12.2039 51 26.2547C51 40.3055 39.5832 51.6959 25.5 51.6959C11.4168 51.6959 0 40.3055 0 26.2547ZM25.5013 12.6861C21.8077 12.6861 21.3441 12.7022 19.8935 12.768C18.4456 12.8341 17.4574 13.0629 16.5926 13.3984C15.6981 13.7449 14.9394 14.2086 14.1834 14.963C13.4269 15.7173 12.9622 16.4743 12.6137 17.3664C12.2766 18.2295 12.047 19.2158 11.9819 20.6597C11.917 22.107 11.9 22.5698 11.9 26.2548C11.9 29.9399 11.9165 30.401 11.9821 31.8483C12.0487 33.2928 12.2779 34.2788 12.614 35.1415C12.9616 36.034 13.4263 36.791 14.1826 37.5452C14.9382 38.3 15.6969 38.7647 16.5909 39.1113C17.4562 39.4468 18.4448 39.6755 19.8923 39.7416C21.3431 39.8076 21.8063 39.8237 25.4996 39.8237C29.1935 39.8237 29.6555 39.8076 31.1063 39.7416C32.554 39.6755 33.5434 39.4468 34.4088 39.1113C35.303 38.7647 36.0606 38.3 36.8163 37.5452C37.5728 36.791 38.0375 36.034 38.386 35.1419C38.7204 34.2788 38.9499 33.2925 39.0179 31.8486C39.083 30.4012 39.1 29.9399 39.1 26.2548C39.1 22.5698 39.083 22.1074 39.0179 20.66C38.9499 19.2154 38.7204 18.2295 38.386 17.3667C38.0375 16.4743 37.5728 15.7173 36.8163 14.963C36.0598 14.2083 35.3033 13.7447 34.408 13.3984C33.5409 13.0629 32.5521 12.8341 31.1043 12.768C29.6535 12.7022 29.1918 12.6861 25.497 12.6861H25.5013Z" fill="white"/>
<path fill-rule="evenodd" clip-rule="evenodd" d="M24.2807 15.1303C24.6428 15.1298 25.0469 15.1303 25.5008 15.1303C29.132 15.1303 29.5624 15.1434 30.9963 15.2084C32.3223 15.2689 33.0421 15.4899 33.5215 15.6756C34.1561 15.9216 34.6086 16.2155 35.0843 16.6904C35.5603 17.1653 35.855 17.6176 36.1021 18.2509C36.2882 18.7286 36.5101 19.4467 36.5704 20.7696C36.6355 22.1999 36.6498 22.6297 36.6498 26.2508C36.6498 29.8719 36.6355 30.3017 36.5704 31.732C36.5097 33.055 36.2882 33.773 36.1021 34.2507C35.8556 34.884 35.5603 35.3348 35.0843 35.8095C34.6083 36.2844 34.1564 36.5783 33.5215 36.8243C33.0426 37.0108 32.3223 37.2313 30.9963 37.2919C29.5627 37.3569 29.132 37.3709 25.5008 37.3709C21.8693 37.3709 21.4388 37.3569 20.0052 37.2919C18.6792 37.2308 17.9595 37.0097 17.4799 36.824C16.8451 36.578 16.3918 36.2841 15.9158 35.8092C15.4398 35.3343 15.1451 34.8831 14.8981 34.2496C14.712 33.7719 14.4901 33.0539 14.4298 31.731C14.3645 30.3005 14.3516 29.8709 14.3516 26.2474C14.3516 22.6239 14.3645 22.1965 14.4298 20.7662C14.4903 19.4433 14.712 18.7252 14.8981 18.2469C15.1446 17.6137 15.4398 17.1614 15.9158 16.6865C16.3918 16.2116 16.8451 15.9176 17.4799 15.6711C17.9593 15.4845 18.6792 15.264 20.0052 15.2033C21.2598 15.1468 21.746 15.1298 24.2807 15.127V15.1303ZM32.7604 17.3833C31.8594 17.3833 31.1284 18.1118 31.1284 19.011C31.1284 19.9099 31.8594 20.6392 32.7604 20.6392C33.6614 20.6392 34.3924 19.9099 34.3924 19.011C34.3924 18.1121 33.6614 17.3833 32.7604 17.3833ZM25.5008 19.2857C21.6437 19.2857 18.5166 22.4058 18.5166 26.2539C18.5166 30.1021 21.6437 33.2206 25.5008 33.2206C29.3579 33.2206 32.4838 30.1021 32.4838 26.2539C32.4838 22.4058 29.3579 19.2857 25.5008 19.2857Z" fill="white"/>
<path fill-rule="evenodd" clip-rule="evenodd" d="M25.5002 21.7275C28.0038 21.7275 30.0336 23.7524 30.0336 26.2505C30.0336 28.7483 28.0038 30.7734 25.5002 30.7734C22.9963 30.7734 20.9668 28.7483 20.9668 26.2505C20.9668 23.7524 22.9963 21.7275 25.5002 21.7275Z" fill="white"/>
</svg>
