<svg width="150" height="103" viewBox="0 0 150 103" fill="none" xmlns="http://www.w3.org/2000/svg">
<g opacity="0.05">
<path d="M135.937 88.9262V7.54282C135.925 6.64624 135.733 5.76098 135.372 4.93848C135.011 4.11598 134.488 3.37265 133.834 2.75169C133.18 2.13072 132.407 1.64451 131.561 1.32131C130.715 0.998111 129.813 0.844366 128.906 0.869012H21.0938C20.1873 0.844366 19.2848 0.998111 18.4389 1.32131C17.593 1.64451 16.8204 2.13072 16.1662 2.75169C15.512 3.37265 14.9891 4.11598 14.628 4.93848C14.2669 5.76098 14.0747 6.64624 14.0626 7.54282V88.9262H0.000101273V90.9654C-0.0128078 94.0681 1.20886 97.0513 3.40136 99.2711C5.59387 101.491 8.58134 102.769 11.7188 102.83H138.281C141.419 102.769 144.406 101.491 146.599 99.2711C148.791 97.0513 150.013 94.0681 150 90.9654V88.9262H135.937ZM18.7501 7.54282C18.7616 7.25443 18.8323 6.97136 18.9578 6.71077C19.0833 6.45018 19.261 6.2175 19.4802 6.02683C19.6993 5.83616 19.9553 5.69147 20.2327 5.60153C20.5101 5.51159 20.803 5.47828 21.0938 5.5036H128.906C129.197 5.47828 129.49 5.51159 129.767 5.60153C130.045 5.69147 130.301 5.83616 130.52 6.02683C130.739 6.2175 130.917 6.45018 131.042 6.71077C131.168 6.97136 131.238 7.25443 131.25 7.54282V88.9262H18.7501V7.54282ZM11.7188 98.1954C10.2885 98.1133 8.91029 97.6352 7.7416 96.8157C6.57292 95.9962 5.66083 94.8683 5.10947 93.5608H65.625V98.1954H11.7188ZM138.281 98.1954H84.375V93.5608H144.891C144.339 94.8683 143.427 95.9962 142.258 96.8157C141.09 97.6352 139.712 98.1133 138.281 98.1954Z" fill="white"/>
<path d="M23.4375 84.2919H126.562V10.1385H23.4375V84.2919ZM28.125 14.7731H121.875V79.6573H28.125V14.7731Z" fill="white"/>
</g>
</svg>
