<svg width="103" height="103" viewBox="0 0 103 103" fill="none" xmlns="http://www.w3.org/2000/svg">
<g opacity="0.05">
<path d="M100.382 0.663696C71.6364 0.663696 45.7843 16.5098 32.5006 40.7861C32.0634 38.9587 31.8778 37.0132 31.9593 34.986C18.2576 36.6955 4.31622 48.9563 0.00444068 62.9577C-0.0109868 63.0077 0.048731 63.0456 0.0902482 63.0138C8.67519 56.4491 18.613 53.9473 26.1668 56.1475C26.0248 56.6374 25.8718 57.1221 25.7392 57.6165L25.4972 58.5204L26.1587 59.1823L22.6014 62.7422C23.0735 63.2148 39.9769 80.1301 39.9769 80.1301L43.535 76.5694L44.1927 77.2276C45.002 77.0098 45.0708 77.0065 46.2064 76.6784L46.4925 76.6759C48.6197 84.2028 46.1035 94.0006 39.5872 102.539C39.5554 102.58 39.5933 102.64 39.6432 102.625C53.6389 98.3086 65.8872 84.354 67.595 70.6469C65.5999 70.7283 63.6816 70.548 61.8758 70.1221C68.1124 66.6315 73.8653 62.3968 79.423 56.8377C93.882 42.3661 102.002 22.8865 102.002 2.28464V0.663696H100.382ZM77.1326 54.5456C68.2033 63.4768 57.3732 70.0423 45.7334 73.438L45.3696 73.4412L45.1782 73.6011C45.1719 73.6027 45.164 73.6042 45.156 73.6074L29.1148 57.5563C35.6277 34.452 52.9461 16.4908 74.734 8.47701L94.1578 27.9146C90.4767 37.862 84.6987 46.9735 77.1326 54.5456Z" fill="white"/>
<path d="M69.602 43.5704C75.4487 43.5704 80.1884 38.8274 80.1884 32.9765C80.1884 27.1256 75.4487 22.3826 69.602 22.3826C63.7553 22.3826 59.0156 27.1256 59.0156 32.9765C59.0156 38.8274 63.7553 43.5704 69.602 43.5704Z" fill="white"/>
<path d="M20.7775 71.0476C14.9534 76.876 11.8477 90.8772 11.8477 90.8772C11.8477 90.8772 25.8391 87.7695 31.6632 81.9411C31.692 81.9123 31.7175 81.8827 31.746 81.8538L20.8647 70.9647C20.836 70.9933 20.8062 71.0189 20.7775 71.0476Z" fill="white"/>
</g>
</svg>
