<svg width="46" height="46" viewBox="0 0 46 46" fill="none" xmlns="http://www.w3.org/2000/svg">
<path d="M23 46C18.451 46 14.0042 44.651 10.2219 42.1237C6.43957 39.5965 3.4916 36.0044 1.75078 31.8017C0.00996558 27.599 -0.445511 22.9745 0.441949 18.5129C1.32941 14.0514 3.51994 9.95322 6.73655 6.73662C9.95316 3.52001 14.0514 1.32941 18.5129 0.441952C22.9745 -0.445506 27.599 0.0099547 31.8017 1.75077C36.0044 3.49158 39.5965 6.43959 42.1238 10.2219C44.6511 14.0042 46 18.4511 46 23.0001C46 29.1 43.5768 34.95 39.2635 39.2634C34.9501 43.5767 29.1 46 23 46ZM23 15.3334C21.4837 15.3334 20.0014 15.783 18.7406 16.6254C17.4799 17.4678 16.4972 18.6652 15.9169 20.0661C15.3367 21.467 15.1848 23.0085 15.4807 24.4957C15.7765 25.9829 16.5067 27.349 17.5789 28.4212C18.6511 29.4934 20.0171 30.2235 21.5043 30.5193C22.9915 30.8151 24.533 30.6633 25.9339 30.0831C27.3348 29.5028 28.5322 28.5201 29.3746 27.2593C30.217 25.9985 30.6667 24.5164 30.6667 23.0001C30.6465 20.98 29.8298 19.0496 28.3942 17.6284C26.9586 16.2072 25.0201 15.4099 23 15.41V15.3334Z" fill="url(#paint0_linear_2_111)"/>
<path d="M23 46C18.451 46 14.0042 44.651 10.2219 42.1237C6.43957 39.5965 3.4916 36.0044 1.75078 31.8017C0.00996558 27.599 -0.445511 22.9745 0.441949 18.5129C1.32941 14.0514 3.51994 9.95322 6.73655 6.73662C9.95316 3.52001 14.0514 1.32941 18.5129 0.441952C22.9745 -0.445506 27.599 0.0099547 31.8017 1.75077C36.0044 3.49158 39.5965 6.43959 42.1238 10.2219C44.6511 14.0042 46 18.4511 46 23.0001C46 29.1 43.5768 34.95 39.2635 39.2634C34.9501 43.5767 29.1 46 23 46ZM23 15.3334C21.4837 15.3334 20.0014 15.783 18.7406 16.6254C17.4799 17.4678 16.4972 18.6652 15.9169 20.0661C15.3367 21.467 15.1848 23.0085 15.4807 24.4957C15.7765 25.9829 16.5067 27.349 17.5789 28.4212C18.6511 29.4934 20.0171 30.2235 21.5043 30.5193C22.9915 30.8151 24.533 30.6633 25.9339 30.0831C27.3348 29.5028 28.5322 28.5201 29.3746 27.2593C30.217 25.9985 30.6667 24.5164 30.6667 23.0001C30.6465 20.98 29.8298 19.0496 28.3942 17.6284C26.9586 16.2072 25.0201 15.4099 23 15.41V15.3334Z" fill="#922636"/>
<path d="M23 46C18.451 46 14.0042 44.651 10.2219 42.1237C6.43957 39.5965 3.4916 36.0044 1.75078 31.8017C0.00996558 27.599 -0.445511 22.9745 0.441949 18.5129C1.32941 14.0514 3.51994 9.95322 6.73655 6.73662C9.95316 3.52001 14.0514 1.32941 18.5129 0.441952C22.9745 -0.445506 27.599 0.0099547 31.8017 1.75077C36.0044 3.49158 39.5965 6.43959 42.1238 10.2219C44.6511 14.0042 46 18.4511 46 23.0001C46 29.1 43.5768 34.95 39.2635 39.2634C34.9501 43.5767 29.1 46 23 46ZM23 15.3334C21.4837 15.3334 20.0014 15.783 18.7406 16.6254C17.4799 17.4678 16.4972 18.6652 15.9169 20.0661C15.3367 21.467 15.1848 23.0085 15.4807 24.4957C15.7765 25.9829 16.5067 27.349 17.5789 28.4212C18.6511 29.4934 20.0171 30.2235 21.5043 30.5193C22.9915 30.8151 24.533 30.6633 25.9339 30.0831C27.3348 29.5028 28.5322 28.5201 29.3746 27.2593C30.217 25.9985 30.6667 24.5164 30.6667 23.0001C30.6465 20.98 29.8298 19.0496 28.3942 17.6284C26.9586 16.2072 25.0201 15.4099 23 15.41V15.3334Z" fill="#B82B40"/>
<defs>
<linearGradient id="paint0_linear_2_111" x1="1206.58" y1="6801.1" x2="1482.12" y2="6801.1" gradientUnits="userSpaceOnUse">
<stop stop-color="#703126"/>
<stop offset="1" stop-color="#D45943"/>
</linearGradient>
</defs>
</svg>
