<svg width="103" height="103" viewBox="0 0 103 103" fill="none" xmlns="http://www.w3.org/2000/svg">
<g opacity="0.05">
<path d="M92.1406 94.0366L85.3792 100.795C84.1715 101.996 80.6352 102.755 80.5294 102.755C59.1253 102.936 38.5184 94.5348 23.3745 79.3935C8.18718 64.2151 -0.226809 43.5355 0.00668628 22.078C0.00668628 22.0655 0.781882 18.6304 1.98661 17.4355L8.74781 10.6709C11.2288 8.1941 15.9788 7.0739 19.3065 8.18155L20.7322 8.6607C24.0599 9.76836 27.5368 13.44 28.4582 16.8192L31.8636 29.309C32.788 32.6945 31.546 37.5111 29.0682 39.9879L24.5484 44.5059C28.9812 60.929 41.865 73.8046 58.2854 78.2418L62.8053 73.7236C65.2833 71.2466 70.1143 70.0083 73.5012 70.9293L85.9964 74.3397C89.3707 75.2546 93.0439 78.7269 94.1583 82.0563L94.6315 83.4814C95.7388 86.8115 94.6184 91.5598 92.1406 94.0366ZM57.3763 51.775H63.7514C63.7514 44.7366 58.0425 39.03 51.0012 39.03V45.4025C54.5154 45.4025 57.3763 48.265 57.3763 51.775ZM82.8767 51.775C82.8767 34.1758 68.6074 19.9123 51.0012 19.9123V26.285C65.0649 26.285 76.5016 37.7232 76.5016 51.775H82.8767ZM51.0012 0.7948V7.1673C75.6051 7.1673 95.6269 27.181 95.6269 51.775H102.002C102.002 23.6214 79.1663 0.7948 51.0012 0.7948Z" fill="white"/>
</g>
</svg>
