<svg width="51" height="52" viewBox="0 0 51 52" fill="none" xmlns="http://www.w3.org/2000/svg">
<path d="M25.5 0.813477C11.4125 0.813477 0 12.2013 0 26.2547C0 40.3081 11.4141 51.6959 25.5 51.6959C39.5875 51.6959 51 40.3081 51 26.2547C51 12.2013 39.5859 0.813477 25.5 0.813477ZM38.0246 18.2432L33.8393 37.9199C33.53 39.3151 32.6976 39.6532 31.5361 38.9967L25.1611 34.3089L22.0863 37.2634C21.7474 37.6015 21.4595 37.8887 20.8014 37.8887L21.2538 31.4152L33.0677 20.766C33.5827 20.3146 32.9542 20.0585 32.2748 20.5099L17.674 29.6802L11.3812 27.7204C10.0141 27.2904 9.98284 26.3565 11.6691 25.6999L36.2544 16.2407C37.3962 15.8304 38.3931 16.5181 38.023 18.2415L38.0246 18.2432Z" fill="white"/>
</svg>
