<svg width="51" height="52" viewBox="0 0 51 52" fill="none" xmlns="http://www.w3.org/2000/svg">
<path d="M25.4996 0.813477C11.4167 0.813477 0 12.2041 0 26.2543C0 40.304 11.4167 51.6959 25.4996 51.6959C39.5829 51.6959 51 40.3045 51 26.2543C51 12.2041 39.5829 0.813477 25.4996 0.813477ZM37.9475 19.9339C37.9475 19.9339 38.5538 22.9318 36.3783 28.1982C34.2019 33.4646 28.8166 38.4463 21.3986 38.9091C13.9802 39.3714 9.98457 36.0978 9.98457 36.0978C15.5489 36.5249 18.0097 34.2476 19.3294 33.5002C14.1578 32.8241 13.4087 28.9455 13.4087 28.9455C13.9078 29.1593 15.4414 29.0881 16.2619 28.8747C11.198 27.6294 11.0908 22.5411 11.0908 22.5411C11.0908 22.5411 12.9806 23.5019 14.0507 23.3237C9.16402 19.6229 12.0181 14.7836 12.0181 14.7836C18.4735 21.8294 25.321 21.4379 25.321 21.4379L25.3519 21.4841C25.2275 20.9879 25.1605 20.4688 25.1605 19.9343C25.1605 16.4117 28.0229 13.5563 31.5538 13.5563C33.4189 13.5563 35.0974 14.3538 36.2663 15.6251L36.3069 15.6022C38.5891 15.4597 40.2659 14.25 40.2659 14.25C39.571 16.2753 38.0948 17.2189 37.4784 17.5365C37.4863 17.5554 37.4938 17.5743 37.5009 17.5928C38.2985 17.4001 40.4383 16.8779 41.0154 16.7055C39.7663 18.9824 37.9475 19.9339 37.9475 19.9339Z" fill="white"/>
</svg>
